<svg height="512" viewBox="0 0 64 64" width="512" xmlns="http://www.w3.org/2000/svg"><path d="m44 1h-38a1 1 0 0 0 -1 1v60a1 1 0 0 0 1 1h38a1 1 0 0 0 1-1v-60a1 1 0 0 0 -1-1zm-1 60h-36v-58h36z"/><path d="m17.1 17.533 3.269 1.967 1.965 3.274a1 1 0 0 0 1.565.193l2.046-2.047a1 1 0 0 0 .224-1.072l-.743-1.9 1.67-1.67 3.136 3.706a1 1 0 0 0 .722.353.99.99 0 0 0 .748-.292l1.4-1.4a1 1 0 0 0 .194-1.14l-2.418-5.005 1.7-1.7a2.482 2.482 0 0 0 0-3.507 2.541 2.541 0 0 0 -3.508 0l-1.7 1.7-5.013-2.417a1 1 0 0 0 -1.14.194l-1.4 1.395a1 1 0 0 0 .061 1.47l3.706 3.136-1.67 1.67-1.9-.743a1 1 0 0 0 -1.072.224l-2.042 2.047a1 1 0 0 0 .193 1.564zm2.8-1.733 1.9.743a1 1 0 0 0 1.072-.224l2.9-2.9a1 1 0 0 0 -.061-1.47l-3.711-3.138.125-.125 5.017 2.414a1 1 0 0 0 1.141-.194l2.2-2.2a.48.48 0 0 1 .819.345.469.469 0 0 1 -.14.334l-2.2 2.2a1 1 0 0 0 -.193 1.141l2.413 5.013-.125.125-3.137-3.707a1 1 0 0 0 -1.47-.061l-2.9 2.9a1 1 0 0 0 -.224 1.071l.743 1.9-.678.678-1.434-2.391a1.011 1.011 0 0 0 -.343-.342l-2.391-1.435z"/><path d="m10 33h30a1 1 0 0 0 0-2h-30a1 1 0 0 0 0 2z"/><path d="m10 36h30a1 1 0 0 0 0-2h-30a1 1 0 0 0 0 2z"/><path d="m10 39h20a1 1 0 0 0 0-2h-20a1 1 0 0 0 0 2z"/><path d="m33 37a1 1 0 0 0 0 2h2a1 1 0 0 0 0-2z"/><path d="m10 47h30a1 1 0 0 0 0-2h-30a1 1 0 0 0 0 2z"/><path d="m10 50h30a1 1 0 0 0 0-2h-30a1 1 0 0 0 0 2z"/><path d="m10 53h20a1 1 0 0 0 0-2h-20a1 1 0 0 0 0 2z"/><path d="m35 51h-2a1 1 0 0 0 0 2h2a1 1 0 0 0 0-2z"/><path d="m53 1a5.006 5.006 0 0 0 -5 5v46a1.012 1.012 0 0 0 .071.372l4 10a1 1 0 0 0 1.858 0l4-10a1.012 1.012 0 0 0 .071-.372v-46a5.006 5.006 0 0 0 -5-5zm2.114 53.023a.885.885 0 0 0 -.114-.023h-4a.885.885 0 0 0 -.114.023l-.809-2.023h5.846zm-5.114-4.023v-41h2v33a1 1 0 0 0 2 0v-33h2v41zm0-44a3 3 0 0 1 6 0v1h-6zm3 53.308-1.323-3.308h2.646z"/><path d="m53 44a1 1 0 0 0 -1 1v1a1 1 0 0 0 2 0v-1a1 1 0 0 0 -1-1z"/></svg>